<svg width="166" height="66" viewBox="0 0 166 66" fill="none" xmlns="http://www.w3.org/2000/svg">
<path d="M5.85068 6.68932L15.3978 29.6088H17.29L26.8371 6.40636H26.9231V29.6088H29.8475V0.558594H26.4071L16.3439 25.0815L6.36674 0.558594H2.84033V29.6088H5.85068V6.68932Z" fill="black"/>
<path d="M47.0743 30.182C54.7293 30.182 60.5779 23.8626 60.5779 15.091C60.5779 5.75345 54.9013 0 47.0743 0C39.4195 0 33.5708 6.31936 33.5708 15.091C33.6568 24.4286 39.3335 30.182 47.0743 30.182ZM47.0743 3.0182C54.4712 3.0182 57.3956 9.24325 57.3956 15.1854C57.3956 19.9956 54.5573 27.3524 47.0743 27.3524C39.6775 27.3524 36.7532 19.9956 36.7532 15.1854C36.8392 9.24325 39.7635 3.0182 47.0743 3.0182Z" fill="black"/>
<path d="M74.1579 0.558594H71.1476L61.1704 29.6088H64.5248L67.1911 21.403H78.2004L80.8667 29.6088H84.2211L74.1579 0.558594ZM68.1372 18.4792L72.6097 4.6143H72.6957L77.1682 18.4792H68.1372Z" fill="black"/>
<path d="M106.122 29.6088H109.477L99.4997 0.558594H96.4894L86.5122 29.6088H89.8666L92.5329 21.403H103.542L106.122 29.6088ZM93.479 18.4792L97.9515 4.6143H98.0375L102.51 18.4792H93.479Z" fill="black"/>
<path d="M9.97715 36.4277L0 65.4779H3.35439L6.0207 57.2722H17.03L19.6963 65.4779H23.0507L12.9875 36.4277H9.97715ZM6.96681 54.3483L11.4393 40.4834H11.5253L15.9978 54.3483H6.96681Z" fill="black"/>
<path d="M28.3124 50.3951L28.2264 46.1507H25.5601V65.486H28.3124V56.2428C28.3124 51.7155 29.8606 48.9803 33.473 48.9803H34.3331V45.7734H33.3869C30.4626 45.8678 29.0005 48.3201 28.3124 50.3951Z" fill="black"/>
<path d="M44.9919 63.2651C40.7774 63.2651 38.9712 59.6811 38.9712 55.9083C38.9712 51.1923 41.6375 48.2684 45.1639 48.2684C48.5183 48.2684 49.4644 51.098 49.9805 52.5128L52.8188 52.2298C52.1308 47.6082 48.9484 45.5332 45.0779 45.5332C40.3474 45.5332 36.0469 49.4003 36.0469 55.814C36.0469 61.1901 39.1432 65.906 44.9919 65.906C49.8085 65.906 51.9587 62.4163 52.9049 59.1151L49.9805 58.7378C49.3784 61.0015 48.0883 63.2651 44.9919 63.2651Z" fill="black"/>
<path d="M64.6467 45.8596C62.1525 45.8596 60.2602 46.9914 59.0561 49.4437H58.9701V36.4277H56.2178V65.4779H58.9701V54.7255C58.9701 50.6698 61.2924 48.5006 63.8726 48.5006C65.8509 48.5006 67.7431 49.7267 67.7431 53.7824V65.4779H70.4954V52.4619C70.4954 46.9914 66.711 45.8596 64.6467 45.8596Z" fill="black"/>
<path d="M76.7063 36.4277C75.5022 36.4277 74.6421 37.4652 74.6421 38.6914C74.6421 40.0118 75.5882 40.955 76.7063 40.955C77.9105 40.955 78.7706 39.9175 78.7706 38.6914C78.7706 37.3709 77.9105 36.4277 76.7063 36.4277Z" fill="black"/>
<path d="M78.1229 46.0918H75.3706V65.4271H78.1229V46.0918Z" fill="black"/>
<path d="M87.362 40.5H84.6097V46.1591H81.3413V48.6114H84.6097V60.8728C84.6097 64.7399 85.7278 65.7774 88.1361 65.7774C88.9962 65.7774 89.9423 65.7774 90.8884 65.6831V62.9478C90.3724 63.0422 89.6843 63.0422 89.0822 63.0422C87.8781 63.0422 87.362 62.2876 87.362 60.4955V48.6114H90.8884V46.1591H87.362V40.5Z" fill="black"/>
<path d="M101.86 45.5332C96.699 45.5332 93.4307 49.9662 93.4307 56.4742C93.4307 61.8503 96.785 65.906 101.688 65.906C105.73 65.906 108.31 63.5481 109.773 59.8697L106.934 59.398C106.332 61.0015 104.956 63.1708 101.774 63.1708C98.8493 63.1708 96.269 60.8128 96.269 56.3798H110.203V55.531C110.289 49.023 106.848 45.5332 101.86 45.5332ZM96.441 54.0219C96.613 51.381 98.3332 48.2684 101.946 48.2684C105.128 48.2684 106.934 50.4378 107.364 54.0219H96.441Z" fill="black"/>
<path d="M121.599 63.2651C117.385 63.2651 115.579 59.6811 115.579 55.9083C115.579 51.1923 118.245 48.2684 121.771 48.2684C125.126 48.2684 126.072 51.098 126.588 52.5128L129.426 52.2298C128.738 47.6082 125.556 45.5332 121.685 45.5332C116.955 45.5332 112.654 49.4003 112.654 55.814C112.654 61.1901 115.751 65.906 121.599 65.906C126.416 65.906 128.566 62.4163 129.512 59.1151L126.588 58.7378C125.986 61.0015 124.61 63.2651 121.599 63.2651Z" fill="black"/>
<path d="M137.245 40.5H134.492V46.1591H131.224V48.6114H134.492V60.8728C134.492 64.7399 135.611 65.7774 138.019 65.7774C138.879 65.7774 139.825 65.7774 140.771 65.6831V62.9478C140.255 63.0422 139.567 63.0422 138.965 63.0422C137.761 63.0422 137.245 62.2876 137.245 60.4955V48.6114H140.771V46.1591H137.245V40.5Z" fill="black"/>
<path d="M150.802 54.5878C147.534 54.0219 146.158 53.173 146.158 51.2867C146.158 49.4003 147.878 48.2684 150.372 48.2684C153.468 48.2684 154.587 50.0605 154.673 51.8526H157.425C157.425 48.0798 154.501 45.5332 150.544 45.5332C146.244 45.5332 143.319 47.7969 143.319 51.5696C143.319 55.2481 146.158 56.5685 149.684 57.2287C154.071 58.0776 155.017 58.7378 155.017 60.2469C155.017 62.2276 152.952 63.2651 150.2 63.2651C146.674 63.2651 145.642 61.3788 145.556 59.7753H142.803C143.147 62.9822 144.695 66.0004 150.286 66.0004C155.791 66.0004 157.769 62.9822 157.769 60.1526C157.941 56.5685 155.361 55.3423 150.802 54.5878Z" fill="black"/>
<path d="M164.377 65.3347L163.517 62.7881H162.829V65.9949H163.173V63.1654H163.259L164.291 65.9949H164.549L165.495 63.1654H165.581V65.9949H165.925V62.7881H165.237L164.377 65.3347Z" fill="black"/>
<path d="M159.989 63.1654H160.935V65.9949H161.365V63.1654H162.311V62.7881H159.989V63.1654Z" fill="black"/>
</svg>
