<svg width="16" height="16" viewBox="0 0 16 16" fill="none" xmlns="http://www.w3.org/2000/svg">
<g clip-path="url(#clip0_52_4)">
<path d="M13.3332 11.6666C13.59 11.6668 13.8369 11.7657 14.0228 11.9429C14.2086 12.1201 14.3192 12.3621 14.3315 12.6186C14.3439 12.8751 14.257 13.1265 14.0891 13.3208C13.9211 13.515 13.6848 13.6372 13.4292 13.662L13.3332 13.6666H2.6665C2.40969 13.6665 2.16277 13.5676 1.97691 13.3904C1.79105 13.2132 1.6805 12.9712 1.66815 12.7147C1.65581 12.4582 1.74263 12.2068 1.91062 12.0125C2.07861 11.8183 2.31489 11.6961 2.5705 11.6713L2.6665 11.6666H13.3332ZM13.3332 6.99998C13.5984 6.99998 13.8527 7.10534 14.0403 7.29287C14.2278 7.48041 14.3332 7.73476 14.3332 7.99998C14.3332 8.2652 14.2278 8.51955 14.0403 8.70709C13.8527 8.89462 13.5984 8.99998 13.3332 8.99998H2.6665C2.40129 8.99998 2.14693 8.89462 1.9594 8.70709C1.77186 8.51955 1.6665 8.2652 1.6665 7.99998C1.6665 7.73476 1.77186 7.48041 1.9594 7.29287C2.14693 7.10534 2.40129 6.99998 2.6665 6.99998H13.3332ZM13.3332 2.33331C13.5984 2.33331 13.8527 2.43867 14.0403 2.62621C14.2278 2.81374 14.3332 3.0681 14.3332 3.33331C14.3332 3.59853 14.2278 3.85288 14.0403 4.04042C13.8527 4.22796 13.5984 4.33331 13.3332 4.33331H2.6665C2.40129 4.33331 2.14693 4.22796 1.9594 4.04042C1.77186 3.85288 1.6665 3.59853 1.6665 3.33331C1.6665 3.0681 1.77186 2.81374 1.9594 2.62621C2.14693 2.43867 2.40129 2.33331 2.6665 2.33331H13.3332Z" fill="black"/>
</g>
<defs>
<clipPath id="clip0_52_4">
<rect width="16" height="16" fill="white"/>
</clipPath>
</defs>
</svg>
